<svg id="Layer_2" data-name="Layer 2" xmlns="http://www.w3.org/2000/svg" viewBox="90 70 1020 260"><defs><style>.cls-1{fill:#fff;stroke:#fff;stroke-miterlimit:10;}</style></defs><title>geektastic-logo</title><path class="cls-1" d="M221.77,176H206.69c16,39.12-17.51,53.31-17.51,53.31-25.78,10.27-47.18,3.42-47.18,3.42-0.73,4.4,2.92,7.82,2.92,7.82l45.72,3.91c33.4,4.24,29.51,35.21,29.51,35.21,0,34.23-29.83,35.54-32.75,37.82-42.47,4.56-64.85,0-64.85,0-24.32-5.54-22.7-28-22.7-28,0-16.3,15.24-25.1,15.24-25.1a21.76,21.76,0,0,1-11.32-16.63A30.88,30.88,0,0,1,117.69,222c-13.29-11.74-13.29-23.8-13.29-23.8-3.57-27.06,9.4-39.78,9.4-39.78,24.32-23.15,57.71-11.74,57.71-11.74h50.26V176Zm-64.68-5.38H157c-0.56,0-7.72.29-7.48,7.58v24c-0.23,7.28,6.92,7.57,7.48,7.58h0.05c0.56,0,7.72-.29,7.48-7.58v-24C164.8,171,157.64,170.67,157.08,170.66ZM144,288.52c1.46,8.56,20.62,6.11,20.62,6.11,7.73,0,10-7.09,10-7.09v-5.87c0-10.27-14.83-8.07-14.83-8.07-8,0-12.65-2.45-12.65-2.45A19.7,19.7,0,0,0,144,288.52Z"/><path class="cls-1" d="M287.67,200.49h-15V178.24c-0.23-7.28,6.92-7.57,7.48-7.58h0.05c0.56,0,7.72.29,7.48,7.58v22.25Zm-7.51-56.61s-56.2-4.28-53.77,63.45v13.94s1.22,52.33,49.61,52.33c0,0,31.13,2.2,48.63-5.87V235s-34.53,8.07-45.72,3.91c0,0-9.24-3.42-8-15.4H331S342.68,143.89,280.16,143.89Z"/><path class="cls-1" d="M402,200.49h-15V178.24c-0.23-7.28,6.92-7.57,7.48-7.58h0.05c0.56,0,7.72.29,7.48,7.58v22.25Zm-7.51-56.61s-56.2-4.28-53.77,63.45v13.94s1.22,52.33,49.61,52.33c0,0,31.13,2.2,48.63-5.87V235s-34.53,8.07-45.72,3.91c0,0-9.24-3.42-8-15.4h60.06S457,143.89,394.45,143.89Z"/><polygon class="cls-1" points="459.35 102.2 459.35 271.89 504.09 271.89 504.09 203.92 526.46 273.88 576.32 273.88 546.4 200.49 570.97 146.46 520.87 146.46 504.58 198.54 504.58 102.2 459.35 102.2"/><path class="cls-1" d="M573.64,146.7v28.61H589v69.44s-1.46,27.45,29.67,29.13c0,0,10,.95,38.18-3.7V237.91s-20.67,4.89-22.86-1.47V175.55H651.7l6.57-28.85H633.95V108.55l-39.39,10.27L588,146.21Z"/><path class="cls-1" d="M866.8,146.94l0.09,28.61,15.32-.05,0.23,69.44s-1.37,27.45,29.76,29c0,0,10,.92,38.17-3.82l-0.11-32.28s-20.65,5-22.86-1.39l-0.2-60.89,17.75-.06,6.47-28.88-24.32.08L927,108.59,887.62,119l-6.48,27.41Z"/><path class="cls-1" d="M713.71,178.73c-17-2.69-39.88,6.85-39.88,6.85V151.83c35.75-11.25,56.17-7.09,56.17-7.09,36.23,3.67,32.83,31.05,32.83,31.05v98.08H726.11l-5.84-10.54C705,277.27,689.63,274,689.63,274c-37.69-3.31-28.21-52.44-28.21-52.44,8.51-38.39,56.42-30.27,56.42-30.27C721,180.31,713.71,178.73,713.71,178.73Zm-9.24,51c0.73,17.48,7.17,16.51,7.17,16.51,7.66-.24,6.69-4.89,6.69-4.89V213.21C701.79,209.79,704.47,229.71,704.47,229.71Z"/><path class="cls-1" d="M858.06,151.37s-30.95-19.46-67.11,2.67c0,0-13.11,6.89-14,29.14,0,0-4.06,23.49,21,36.61,0,0,20.7,8.49,20.72,14.36,0,0,2.94,7.57-10.92,7.13s-28.47-5.53-28.47-5.53l0.35,32.76s14.6,7.78,38.08,7.7c0,0,45.6.09,45.47-38.54,0,0,4.52-31.8-26.16-41.73,0,0-15.82-5.33-15.84-10.46,0,0-1.73-8.55,6.3-7.6,0,0,1.94-1.72,30.66,5.28Z"/><ellipse class="cls-1" cx="981.57" cy="108.77" rx="22.74" ry="22.87" transform="translate(-0.36 3.28) rotate(-0.19)"/><rect class="cls-1" x="959.16" y="146.06" width="45.48" height="125.44" transform="translate(-0.68 3.24) rotate(-0.19)"/><path class="cls-1" d="M1099.76,148.61s-39.21-18-65.62,11.47c0,0-15.26,18.63-13.95,47.48s1.36,43.28,19.65,58.13c0,0,21.94,16.55,60.33,5.42L1100,234.19s-23.8,10.59-30.64-.63c0,0-3.41-.48-4.24-30.8,0,0-1.29-22.49,12.32-23.76,0,0,7.53-2.47,22.39,4.33Z"/></svg>
